<svg id="Layer_1" data-name="Layer 1" xmlns="http://www.w3.org/2000/svg" viewBox="0 0 296.03 39.53"><defs><style>.cls-1{fill:#d33100;}</style></defs><title>supergasbras-logo</title><path class="cls-1" d="M39.61,19.72A19.78,19.78,0,0,0,29.12,2.25V8.13a14.85,14.85,0,1,1-18.63.06V2.25A19.8,19.8,0,1,0,39.61,19.72Zm-8.2,0a11.53,11.53,0,0,0-4.34-9,2.92,2.92,0,0,1-1.2-2.37V.87A19.8,19.8,0,0,0,21.5,0V8.29h0V10.7A3.66,3.66,0,0,0,23,14a6.61,6.61,0,1,1-6.47,0,3.64,3.64,0,0,0,1.61-3.29V0a19.68,19.68,0,0,0-4.36.84v7.5a2.93,2.93,0,0,1-1.22,2.38,11.56,11.56,0,1,0,18.81,9Z"/><path d="M208.57,15.2l3-3a10.47,10.47,0,0,0-7.93-3.06c-4.2,0-7.64,2.23-7.64,5.93s2.62,5.41,7,6.55c3.88,1,4.38,1.56,4.38,2.7s-1.12,1.8-3.47,1.8a8.34,8.34,0,0,1-5.61-2.24l-3,3a12,12,0,0,0,8.6,3.4c4.52,0,8-2,8-6,0-3.75-2.35-5.34-6.78-6.51-3.59-.94-4.73-1.38-4.73-2.68s1.17-1.82,3.17-1.82a6.66,6.66,0,0,1,4.93,1.94ZM189.9,30h4.64L185.79,9.3H181.5L172.75,30h4.64L179,26.1h9.28L189.9,30Zm-3.23-7.9h-6l3-7.37,3,7.37Zm-14.3-2.38a11.09,11.09,0,0,0-.12-1.61H162.12v4h5.28c-.58,2.53-2.58,4.06-5.63,4.06-3.47,0-6-2.77-6-6.41a6,6,0,0,1,6-6.34,7.45,7.45,0,0,1,5.4,2l3.08-3.08a11.34,11.34,0,0,0-8.48-3.18,10.4,10.4,0,0,0-10.6,10.63,10.39,10.39,0,0,0,10.6,10.63c6.69,0,10.6-4.64,10.6-10.63Zm-25,10.52a6.78,6.78,0,0,0,1.09-.06V26.3a3.22,3.22,0,0,1-.38,0c-1.41,0-2.64-.65-4.61-2.61l-.79-.8a6.36,6.36,0,0,0,5.16-6.43c0-4.64-3.4-7-7.75-7h-9.4V30h4.53V13.62h4.52c2.11,0,3.52,1,3.52,3s-1.41,3-3.52,3h-2.06v4.17L139.85,26c3.64,3.87,5.11,4.2,7.57,4.2ZM110.86,30H126.5V26H115.34V21.67H125v-4h-9.69V13.48h11v-4H110.86V30ZM107.6,16.76c0-4.29-2.94-7.31-7.87-7.31h-8.4V30h4.52V13.62h3.52c2.24,0,3.65,1.14,3.65,3.14s-1.41,3.14-3.65,3.14H98.32v4.17h1.41c4.93,0,7.87-3,7.87-7.31Zm-21,4.3V9.45H82.09V21.24c0,3.26-1.47,4.94-4.24,4.94s-4.23-1.73-4.23-5.09V9.45H69.09V21.21c0,6.06,3.17,9.14,8.7,9.14s8.82-3.05,8.82-9.29Zm-32.49-6c0-1.17,1.17-1.82,3.17-1.82a6.66,6.66,0,0,1,4.93,1.94l3-3a10.51,10.51,0,0,0-7.93-3.06c-4.2,0-7.64,2.23-7.64,5.93s2.62,5.41,7,6.55c3.88,1,4.38,1.56,4.38,2.7s-1.12,1.8-3.47,1.8A8.34,8.34,0,0,1,52,23.89l-3,3a12,12,0,0,0,8.6,3.4c4.52,0,8-2,8-6,0-3.75-2.35-5.34-6.79-6.51-3.58-.94-4.72-1.38-4.72-2.68Z"/><path d="M292.62,15.2l3-3a10.51,10.51,0,0,0-7.93-3c-4.2,0-7.63,2.23-7.63,5.93s2.61,5.4,7,6.55c3.88,1,4.38,1.55,4.38,2.7s-1.12,1.79-3.47,1.79a8.33,8.33,0,0,1-5.6-2.23l-3,3a12,12,0,0,0,8.6,3.41c4.53,0,8-2,8-6,0-3.76-2.35-5.35-6.78-6.52-3.59-.94-4.73-1.38-4.73-2.67s1.17-1.82,3.17-1.82a6.62,6.62,0,0,1,4.93,1.94Z"/><path d="M269.84,9.29h-4.29L256.8,30h4.64l1.61-3.91h9.28L274,30h4.64L269.84,9.29ZM264.67,22.1l3-7.37,3,7.37Z"/><path d="M253.09,30.23a6.78,6.78,0,0,0,1.09-.06V26.3l-.38,0c-1.41,0-2.65-.64-4.61-2.61l-.8-.79a6.37,6.37,0,0,0,5.17-6.43c0-4.64-3.4-7-7.75-7h-9.4V30h4.53V13.61h4.52c2.11,0,3.52,1,3.52,3s-1.41,3-3.52,3H243.4v4.17L245.52,26c3.64,3.88,5.11,4.2,7.57,4.2Z"/><path d="M229.08,19.37a4.77,4.77,0,0,0,2.7-4.43v-.06a4.7,4.7,0,0,0-1.41-3.49A7.38,7.38,0,0,0,225,9.57h-9.53V30.11h9.77c4.64,0,7.69-1.88,7.69-5.63v-.06c0-2.76-1.47-4.14-3.85-5.05Zm-.64,4.55c0,1.53-1.21,2.23-3.2,2.23h-5.37V13.53h4.46c1.91,0,3,.76,3,2.11v.06c0,1.53-1.26,2.17-3.26,2.17h-1.7v3.76h2.76c2.32,0,3.35.85,3.35,2.23v.06Z"/></svg>